PathFileType	4	(X/Y/Z)	c:/Users/goper/Files/vsCode/490R/osim_files/C11/C11_SSWS_05.trc
DataRate	CameraRate	NumFrames	NumMarkers	Units                	OrigDataRate	OrigDataStartFrame	OrigNumFrames
120.00	120.00	5	36	mm	120.0	513	1366
                Frame#	Time	LPSI			LASI			LTH1			LTH2			LTH3			LTH4			LLFE			LMFE			LSH1			LSH2			LSH3			LSH4			LLMA			LMMA			LCAL			LMTP			LTOE			LMTP			RPSI			RASI			RTH1			RTH2			RTH3			RTH4			RLFE			RMFE			RSH1			RSH2			RSH3			RSH4			RLMA			RMMA			RCAL			RMTP			RTOE			RMTP		
		X1	Y1	Z1	X2	Y2	Z2	X3	Y3	Z3	X4	Y4	Z4	X5	Y5	Z5	X6	Y6	Z6	X7	Y7	Z7	X8	Y8	Z8	X9	Y9	Z9	X10	Y10	Z10	X11	Y11	Z11	X12	Y12	Z12	X13	Y13	Z13	X14	Y14	Z14	X15	Y15	Z15	X16	Y16	Z16	X17	Y17	Z17	X18	Y18	Z18	X19	Y19	Z19	X20	Y20	Z20	X21	Y21	Z21	X22	Y22	Z22	X23	Y23	Z23	X24	Y24	Z24	X25	Y25	Z25	X26	Y26	Z26	X27	Y27	Z27	X28	Y28	Z28	X29	Y29	Z29	X30	Y30	Z30	X31	Y31	Z31	X32	Y32	Z32	X33	Y33	Z33	X34	Y34	Z34	X35	Y35	Z35	X36	Y36	Z36

513	4.26667	0.00000	0.00000	0.00000	0.00000	0.00000	0.00000	1562.45850	609.11353	354.36539	0.00000	0.00000	0.00000	1506.77637	594.44379	371.57465	1520.39014	550.60352	365.44711	1566.70740	485.22491	356.53522	1535.51819	480.00491	266.12082	1652.12231	404.43521	359.98251	1668.73621	362.18585	358.35220	1596.72839	375.91034	362.82352	1622.23328	337.39062	359.46332	1757.62305	108.40270	286.51489	1724.12488	122.85891	194.31844	1818.21606	81.17779	229.03395	1655.36255	41.82413	317.97491	1581.08276	55.67693	250.86743	1619.10522	46.63316	204.21773	1535.45459	974.77435	154.17796	1364.40186	950.89380	90.81308	1321.31360	600.52930	41.26537	1298.23242	563.19946	48.89545	1263.72961	626.85919	49.71250	1250.78662	586.17889	54.73208	1244.00049	503.27094	62.32720	1251.37524	477.65878	175.33476	1261.02856	378.47772	51.32468	1236.94666	339.57129	52.42072	1204.58594	404.86880	46.62960	1188.53687	359.87860	47.36014	1089.18359	101.69100	91.64084	1066.60205	134.64043	180.34250	1117.67749	43.79718	153.99844	930.77783	152.20601	150.18817	938.60510	157.69371	98.43486	959.77325	106.19567	47.90927
514	4.27500	0.00000	0.00000	0.00000	1365.90381	967.47253	319.54236	1552.77686	607.84064	352.97562	0.00000	0.00000	0.00000	1497.28687	593.11493	370.48087	1510.87634	549.20740	364.46375	1557.64587	484.10114	355.60248	1525.36169	478.19073	265.37570	1644.14868	404.92102	359.30930	1661.84375	363.12497	357.72803	1589.32642	375.12509	361.95190	1615.43225	337.25354	358.79465	1756.04578	110.88503	286.77515	1723.32031	125.82068	193.40970	1817.10522	84.72840	229.32578	1655.22681	41.95502	317.92178	1581.09448	55.32008	250.70703	1619.05078	46.87068	204.07883	1524.00110	973.49731	153.36909	1352.82642	949.59705	89.95422	1307.71497	600.72632	41.74664	1284.82581	563.62115	48.92715	1250.21631	627.29926	50.87743	1237.14624	586.68158	55.56311	1230.04700	503.39661	63.18305	1237.46863	477.97705	176.24544	1248.71265	378.72745	51.59862	1225.52515	339.25171	52.93501	1191.79077	403.93967	48.10306	1176.51172	358.35236	49.10308	1086.24182	100.81504	93.35172	1061.01648	131.50476	181.71523	1116.77771	43.35977	155.48135	924.18518	141.81538	151.55348	932.80438	148.45653	100.34582	957.16827	98.19691	48.48590
515	4.28333	0.00000	0.00000	0.00000	1354.97461	966.10974	319.20526	1542.75122	606.60925	351.43219	0.00000	0.00000	0.00000	1487.48999	591.52032	369.72653	1501.02698	547.54419	363.14032	1548.19690	482.98984	354.60184	1518.72693	478.94321	262.98618	1635.87549	405.61069	358.48972	1654.61169	364.28149	357.07162	1581.59338	374.46555	361.11340	1608.78748	337.14395	358.43793	1754.17322	113.78331	286.99161	1720.10315	126.97597	194.66736	1815.69202	88.74220	229.50433	1654.98889	42.15476	317.84503	1580.52502	55.24290	250.85063	1618.67310	46.88892	204.20125	1512.26062	972.26605	152.55725	1340.85583	948.37170	89.55608	1294.06726	600.67383	42.47815	1270.89148	563.66248	49.86845	1236.64673	627.42871	51.97687	1223.86877	587.15936	56.14215	1215.85974	503.12759	64.41969	1225.86865	477.95166	176.97617	1236.50732	378.99377	51.69669	1214.43384	338.97653	53.38852	1179.05469	402.97382	49.59719	1164.72876	356.97369	50.87455	1082.25012	99.61504	94.26999	1054.86316	128.92787	183.50700	1115.15088	43.92339	156.60742	917.78772	132.90535	152.69637	926.43207	140.33128	101.81645	952.64221	91.81025	49.53556
516	4.29167	1510.35767	963.13013	233.26500	1343.87805	964.50665	318.73611	1532.34033	605.41315	349.81165	1539.25940	557.97815	349.31943	1477.05981	590.29669	368.46500	1491.26892	546.55109	362.55447	1538.39465	481.96124	353.56653	1505.83472	475.20956	263.72809	1627.15320	406.47406	357.70914	1647.03918	365.65900	356.35907	1573.48254	373.94971	360.31277	1601.49878	337.53452	357.74286	1751.79041	116.92781	287.07245	1718.63782	130.48665	193.92804	1813.99072	93.31704	229.83858	1654.92151	42.36655	317.99234	1580.18921	55.07801	250.84607	1618.21204	46.93604	204.31137	1500.51196	971.38031	151.50357	1328.89185	947.29523	89.13924	1280.62048	600.72479	43.16015	1257.60754	563.71796	50.69144	1223.30444	627.47552	53.12907	1210.22705	586.89618	57.75786	1202.48181	503.25958	65.47498	1213.56775	477.67557	177.96442	1224.09863	379.12073	52.04174	1203.00745	338.83435	53.93822	1166.56738	402.30173	51.17993	1153.06152	356.01871	52.73473	1076.22974	100.32779	95.30966	1047.38281	127.04964	185.69052	1112.37000	46.30530	157.61459	910.74292	124.78040	153.88689	918.83527	133.92535	103.29359	947.78290	86.81145	50.82455
517	4.30000	1498.48926	962.25623	232.19827	1332.39990	962.96844	318.16736	1521.38843	604.05762	348.36337	1528.57532	556.89569	347.74542	1466.44812	589.03906	367.40448	1480.73132	545.38947	361.51083	1528.07776	481.13358	352.35608	1494.78113	473.75961	262.75864	1617.97424	407.54953	356.83578	1638.07495	366.99200	355.65369	1564.94629	373.59546	359.55466	1593.61060	338.04379	357.00690	1749.55774	120.44504	287.79099	1715.81458	133.36522	194.33888	1812.03601	98.49974	230.29179	1654.49316	42.67445	317.98041	1579.86353	54.94851	250.86021	1617.29028	46.78366	204.81480	1488.53857	970.76483	150.45129	1316.68494	946.84131	88.69230	1267.32544	600.62305	43.97221	1245.06421	563.90491	51.08859	1210.12732	627.34198	54.27489	1197.50049	585.62823	58.09351	1189.67175	503.29477	66.16726	1202.06934	476.84305	178.25337	1212.08984	379.44272	52.10155	1191.57300	339.63092	54.01599	1154.27405	402.33908	52.45242	1140.88794	355.87119	54.20631	1069.07861	101.49579	96.68391	1038.21216	125.00361	188.88307	1108.19885	49.17048	158.70239	902.76129	115.84198	155.44881	910.02380	127.40344	105.48745	942.34088	82.52939	52.85955
